<mxfile host="app.diagrams.net" modified="2023-10-16T02:16:32.422Z" agent="Mozilla/5.0 (Windows NT 10.0; Win64; x64; rv:109.0) Gecko/20100101 Firefox/118.0" etag="RqV1wKTH6ET3YUy4uWkS" version="22.0.4" type="github">
  <diagram name="Page-1" id="jYDm_seiPT5i1UObWj6c">
    <mxGraphModel dx="880" dy="470" grid="1" gridSize="10" guides="1" tooltips="1" connect="1" arrows="1" fold="1" page="1" pageScale="1" pageWidth="850" pageHeight="1100" math="0" shadow="0">
      <root>
        <mxCell id="0" />
        <mxCell id="1" parent="0" />
        <mxCell id="5ygCzJWe79rPTGOpunGC-2" style="edgeStyle=orthogonalEdgeStyle;rounded=0;orthogonalLoop=1;jettySize=auto;html=1;" edge="1" parent="1" source="5ygCzJWe79rPTGOpunGC-1">
          <mxGeometry relative="1" as="geometry">
            <mxPoint x="425" y="160" as="targetPoint" />
          </mxGeometry>
        </mxCell>
        <mxCell id="5ygCzJWe79rPTGOpunGC-1" value="mulai" style="ellipse;whiteSpace=wrap;html=1;" vertex="1" parent="1">
          <mxGeometry x="365" y="40" width="120" height="80" as="geometry" />
        </mxCell>
        <mxCell id="5ygCzJWe79rPTGOpunGC-5" style="edgeStyle=orthogonalEdgeStyle;rounded=0;orthogonalLoop=1;jettySize=auto;html=1;" edge="1" parent="1" source="5ygCzJWe79rPTGOpunGC-3">
          <mxGeometry relative="1" as="geometry">
            <mxPoint x="425" y="290" as="targetPoint" />
          </mxGeometry>
        </mxCell>
        <mxCell id="5ygCzJWe79rPTGOpunGC-3" value="&lt;div&gt;menetapkan bilangan&lt;/div&gt;&lt;div&gt;ganjil dan genap&lt;br&gt;&lt;/div&gt;" style="whiteSpace=wrap;html=1;aspect=fixed;" vertex="1" parent="1">
          <mxGeometry x="380" y="160" width="90" height="90" as="geometry" />
        </mxCell>
        <mxCell id="5ygCzJWe79rPTGOpunGC-9" style="edgeStyle=orthogonalEdgeStyle;rounded=0;orthogonalLoop=1;jettySize=auto;html=1;exitX=0.5;exitY=1;exitDx=0;exitDy=0;" edge="1" parent="1" source="5ygCzJWe79rPTGOpunGC-4">
          <mxGeometry relative="1" as="geometry">
            <mxPoint x="428" y="360" as="targetPoint" />
          </mxGeometry>
        </mxCell>
        <mxCell id="5ygCzJWe79rPTGOpunGC-4" value="dibagi 2" style="rounded=1;whiteSpace=wrap;html=1;" vertex="1" parent="1">
          <mxGeometry x="370" y="290" width="115" height="40" as="geometry" />
        </mxCell>
        <mxCell id="5ygCzJWe79rPTGOpunGC-11" style="edgeStyle=orthogonalEdgeStyle;rounded=0;orthogonalLoop=1;jettySize=auto;html=1;" edge="1" parent="1" source="5ygCzJWe79rPTGOpunGC-10">
          <mxGeometry relative="1" as="geometry">
            <mxPoint x="610" y="405" as="targetPoint" />
          </mxGeometry>
        </mxCell>
        <mxCell id="5ygCzJWe79rPTGOpunGC-12" value="bisa" style="edgeLabel;html=1;align=center;verticalAlign=middle;resizable=0;points=[];" vertex="1" connectable="0" parent="5ygCzJWe79rPTGOpunGC-11">
          <mxGeometry x="0.1254" y="1" relative="1" as="geometry">
            <mxPoint as="offset" />
          </mxGeometry>
        </mxCell>
        <mxCell id="5ygCzJWe79rPTGOpunGC-16" style="edgeStyle=orthogonalEdgeStyle;rounded=0;orthogonalLoop=1;jettySize=auto;html=1;" edge="1" parent="1" source="5ygCzJWe79rPTGOpunGC-10">
          <mxGeometry relative="1" as="geometry">
            <mxPoint x="427.5050000000001" y="570" as="targetPoint" />
          </mxGeometry>
        </mxCell>
        <mxCell id="5ygCzJWe79rPTGOpunGC-17" value="tidak bisa" style="edgeLabel;html=1;align=center;verticalAlign=middle;resizable=0;points=[];" vertex="1" connectable="0" parent="5ygCzJWe79rPTGOpunGC-16">
          <mxGeometry x="0.1206" y="-1" relative="1" as="geometry">
            <mxPoint as="offset" />
          </mxGeometry>
        </mxCell>
        <mxCell id="5ygCzJWe79rPTGOpunGC-10" value="&lt;div&gt;bilangan dibagi&lt;/div&gt;&lt;div&gt;dengan &lt;br&gt;&lt;/div&gt;&lt;div&gt;2&lt;br&gt;&lt;/div&gt;" style="rhombus;whiteSpace=wrap;html=1;" vertex="1" parent="1">
          <mxGeometry x="351.88" y="360" width="151.25" height="90" as="geometry" />
        </mxCell>
        <mxCell id="5ygCzJWe79rPTGOpunGC-22" style="edgeStyle=orthogonalEdgeStyle;rounded=0;orthogonalLoop=1;jettySize=auto;html=1;entryX=1;entryY=0.5;entryDx=0;entryDy=0;" edge="1" parent="1" source="5ygCzJWe79rPTGOpunGC-13" target="5ygCzJWe79rPTGOpunGC-21">
          <mxGeometry relative="1" as="geometry">
            <Array as="points">
              <mxPoint x="680" y="750" />
            </Array>
          </mxGeometry>
        </mxCell>
        <mxCell id="5ygCzJWe79rPTGOpunGC-13" value="genap" style="rounded=0;whiteSpace=wrap;html=1;" vertex="1" parent="1">
          <mxGeometry x="610" y="375" width="120" height="60" as="geometry" />
        </mxCell>
        <mxCell id="5ygCzJWe79rPTGOpunGC-20" style="edgeStyle=orthogonalEdgeStyle;rounded=0;orthogonalLoop=1;jettySize=auto;html=1;" edge="1" parent="1" source="5ygCzJWe79rPTGOpunGC-19">
          <mxGeometry relative="1" as="geometry">
            <mxPoint x="427.51" y="710" as="targetPoint" />
          </mxGeometry>
        </mxCell>
        <mxCell id="5ygCzJWe79rPTGOpunGC-19" value="ganjil" style="rounded=1;whiteSpace=wrap;html=1;" vertex="1" parent="1">
          <mxGeometry x="367.51" y="570" width="120" height="60" as="geometry" />
        </mxCell>
        <mxCell id="5ygCzJWe79rPTGOpunGC-21" value="finish" style="ellipse;whiteSpace=wrap;html=1;" vertex="1" parent="1">
          <mxGeometry x="367.5" y="710" width="120" height="80" as="geometry" />
        </mxCell>
      </root>
    </mxGraphModel>
  </diagram>
</mxfile>
